<?xml version="1.0" encoding="utf-8"?>
<!-- Generator: Adobe Illustrator 28.1.0, SVG Export Plug-In . SVG Version: 6.00 Build 0)  -->
<svg version="1.1" id="Layer_1" xmlns="http://www.w3.org/2000/svg" xmlns:xlink="http://www.w3.org/1999/xlink" x="0px" y="0px"
	 viewBox="0 0 284 58" style="enable-background:new 0 0 284 58;" xml:space="preserve">
<g>
	<path d="M68.7,54.8v1.6h-19v-1.6l0.7-0.5c1.5-1.1,2.5-3.1,2.5-4.9V12.5L35,56.4h-5.3L12.5,12.9v36.4c0,1.8,1,3.8,2.5,4.9l0.7,0.5
		v1.6H4.5v-1.6l0.7-0.5c1.5-1.1,2.5-3.1,2.5-4.9V7.9c0-1.8-1-3.8-2.5-4.9L4.5,2.4V0.9h16.9l15.3,38.6L52.5,0.9h16.2v1.5L68.1,3
		c-1.5,1.1-2.5,3.1-2.5,4.9v41.4c0,1.8,1,3.8,2.5,4.9L68.7,54.8z"/>
	<path d="M91.4,15.9c12.3,0,20.4,8.2,20.4,20.4c0,12.3-8.3,20.9-20.8,20.9c-12.2,0-20.5-8.3-20.5-20.6
		C70.5,24.1,78.9,15.9,91.4,15.9z M91,52.4c4.8,0,8-6.4,8-15.8c0-9.6-3.2-15.8-8-15.8c-4.7,0-7.9,6.4-7.9,16
		C83.2,46.2,86.4,52.4,91,52.4z"/>
	<path d="M132.1,54.8v1.6H113v-1.6l0.7-0.5c1.5-1.1,2.5-3.1,2.5-4.9V26.1c0-1.8-1-3.8-2.5-4.9l-0.7-0.5v-1.6l12.7-2.4h3.1v3.2
		c2.1-2.5,5.4-4.1,8.8-4.1c7,0,10.6,6,7.7,11.3c-1.5,2.5-4.1,3.7-6.7,3.7c-1.5,0-3-0.4-4.2-1.1c-1.5-0.8-3.6-2.7-3.2-7.2
		c-1.2,0.2-2.2,1.5-2.4,4.1v22.7c0,1.8,1.1,3.8,2.5,4.9L132.1,54.8z"/>
	<path d="M172.5,4.8V3.2l12.6-2.4h3.2v49.1c0,2,0.6,2.8,2.1,2.8c0,0,1.1,0,1.8-1.1c0,1.9-2.8,5.5-8.6,5.5c-3.8,0-6.5-1.5-7.7-5
		c-2.4,3.1-5.8,5-10.9,5c-10.7,0-18.1-8.2-18.1-20.4c0-12.5,7.7-20.8,18.8-20.8c4.4,0,7.5,1.4,9.7,3.6v-9.2c0-1.8-0.9-3.8-2.5-4.9
		L172.5,4.8z M175.7,38.7v-4.3c-0.5-8.4-3.7-13.7-8.2-13.7c-4.9,0-7.7,6.4-7.7,15.6c0,9.9,3.1,16.1,7.8,16.1
		C172.1,52.4,175.2,47,175.7,38.7z"/>
	<path d="M229.5,30.8v19.1c0,2,0.6,2.8,2.1,2.8c0,0,1.1,0,1.8-1.1c0,1.9-2.8,5.5-8.5,5.5c-4.1,0-7-1.9-7.9-5.8
		c-2.5,3.8-6.7,5.8-11.3,5.8c-7,0-12.5-4.6-12.5-11.5c0-14.1,22.4-12.6,23-18.9c-1.5-5.1-5.6-6.7-8.3-6.7c-1.1,0-1.8,0.2-2.2,0.5
		c1.3,1.1,2.2,2.8,2.2,4.7c0,3.2-2.7,5.9-6,5.9c-3.4,0-6-2.7-6-6.2c0-5.3,5.7-9,15.4-9C219.8,15.9,229.5,18.9,229.5,30.8z
		 M216.8,32.4c-3.8,2.8-10.8,4.1-10.8,10.6c0,3.8,2.4,6.2,4.8,6.2c2.8,0,5.5-3,6-7.5V32.4z"/>
	<path d="M262.8,30.9c0-5.6-2.1-9-6-9c-3.6,0-6.2,3.3-6.7,8.3v19.1c0,1.8,1.1,3.8,2.5,4.9l0.8,0.5v1.6h-19.1v-1.6l0.7-0.5
		c1.5-1.1,2.5-3.1,2.5-4.9V26.1c0-1.8-1-3.8-2.5-4.9l-0.7-0.5v-1.6l12.7-2.4h3.1v6c2.8-4.3,7.4-6.9,12.8-6.9
		c8.2,0,12.6,5.7,12.6,14.2v19.8c0,2,0.6,2.8,2.1,2.8c0,0,1.1,0,1.8-1.1c0,1.9-2.8,5.5-8.6,5.5c-5.1,0-8.1-2.8-8.1-8.8V30.9z"/>
</g>
</svg>
